<?xml version="1.0" encoding="utf-8"?>
<!-- Generator: Adobe Illustrator 27.9.0, SVG Export Plug-In . SVG Version: 6.00 Build 0)  -->
<svg version="1.1" id="Слой_1" xmlns="http://www.w3.org/2000/svg" xmlns:xlink="http://www.w3.org/1999/xlink" x="0px" y="0px"
	 viewBox="0 0 20 11" style="enable-background:new 0 0 20 11;" xml:space="preserve">
<style type="text/css">
	.st0{fill:#FF5B00;}
</style>
<g>
	<g>
		<g>
			<path class="st0" d="M10,10.9c-0.3,0-0.5-0.1-0.7-0.3L0.6,1.9c-0.4-0.4-0.4-1,0-1.4s1-0.4,1.4,0l8.7,8.7c0.4,0.4,0.4,1,0,1.4
				C10.5,10.8,10.3,10.9,10,10.9z"/>
		</g>
	</g>
	<g>
		<g>
			<path class="st0" d="M10,10.9c-0.3,0-0.5-0.1-0.7-0.3c-0.4-0.4-0.4-1,0-1.4L18,0.4c0.4-0.4,1-0.4,1.4,0s0.4,1,0,1.4l-8.7,8.7
				C10.5,10.8,10.3,10.9,10,10.9z"/>
		</g>
	</g>
</g>
</svg>
