<?xml version="1.0" encoding="utf-8"?>
<!-- Generator: Adobe Illustrator 27.9.0, SVG Export Plug-In . SVG Version: 6.00 Build 0)  -->
<svg version="1.1" id="Слой_1" xmlns="http://www.w3.org/2000/svg" xmlns:xlink="http://www.w3.org/1999/xlink" x="0px" y="0px"
	 viewBox="0 0 22 22" style="enable-background:new 0 0 22 22;" xml:space="preserve">
<style type="text/css">
	.st0{fill:#FF5B00;}
</style>
<path class="st0" d="M8.8,0.2C7.3-0.3,5.6,0.4,4.9,1.8L4,3.5C3.9,3.7,3.7,3.9,3.5,4L1.8,4.9C0.4,5.6-0.3,7.3,0.2,8.8l0.6,1.8
	c0.1,0.2,0.1,0.5,0,0.7l-0.6,1.8c-0.5,1.5,0.2,3.2,1.6,3.9L3.5,18c0.2,0.1,0.4,0.3,0.5,0.5l0.9,1.7c0.7,1.4,2.4,2.1,3.9,1.6l1.8-0.6
	c0.2-0.1,0.5-0.1,0.7,0l1.8,0.6c1.5,0.5,3.2-0.2,3.9-1.6l0.9-1.7c0.1-0.2,0.3-0.4,0.5-0.5l1.7-0.9c1.4-0.7,2.1-2.4,1.6-3.9l-0.6-1.8
	c-0.1-0.2-0.1-0.5,0-0.7l0.6-1.8c0.5-1.5-0.2-3.2-1.6-3.9L18.5,4c-0.2-0.1-0.4-0.3-0.5-0.5l-0.9-1.7c-0.7-1.4-2.4-2.1-3.9-1.6
	l-1.8,0.6c-0.2,0.1-0.5,0.1-0.7,0L8.8,0.2z M6.8,2.8c0.2-0.5,0.8-0.7,1.3-0.5L10,2.9c0.7,0.2,1.4,0.2,2,0l1.8-0.6
	c0.5-0.2,1.1,0.1,1.3,0.5L16,4.5c0.3,0.6,0.8,1.1,1.4,1.4l1.7,0.9c0.5,0.2,0.7,0.8,0.5,1.3L19.1,10c-0.2,0.7-0.2,1.4,0,2l0.6,1.8
	c0.2,0.5-0.1,1.1-0.5,1.3L17.5,16c-0.6,0.3-1.1,0.8-1.4,1.4l-0.9,1.7c-0.2,0.5-0.8,0.7-1.3,0.5L12,19.1c-0.7-0.2-1.4-0.2-2,0
	l-1.8,0.6c-0.5,0.2-1.1-0.1-1.3-0.5L6,17.5c-0.3-0.6-0.8-1.1-1.4-1.4l-1.7-0.9c-0.5-0.2-0.7-0.8-0.5-1.3L2.9,12c0.2-0.7,0.2-1.4,0-2
	L2.3,8.2C2.1,7.6,2.3,7.1,2.8,6.8L4.5,6C5.2,5.6,5.6,5.2,6,4.5L6.8,2.8z M5.3,11.7L9,15.5c0.2,0.2,0.6,0.2,0.9,0l6.9-6.9
	C17,8.4,17,8,16.7,7.8l-0.7-0.7c-0.2-0.2-0.6-0.2-0.9,0l-5.3,5.3c-0.2,0.2-0.6,0.2-0.9,0l-2.2-2.2c-0.2-0.2-0.6-0.2-0.9,0l-0.7,0.7
	C5,11.1,5,11.5,5.3,11.7z"/>
</svg>
