<?xml version="1.0" encoding="utf-8"?>
<!-- Generator: Adobe Illustrator 27.9.0, SVG Export Plug-In . SVG Version: 6.00 Build 0)  -->
<svg version="1.1" id="Слой_1" xmlns="http://www.w3.org/2000/svg" xmlns:xlink="http://www.w3.org/1999/xlink" x="0px" y="0px"
	 viewBox="0 0 13 13" style="enable-background:new 0 0 13 13;" xml:space="preserve">
<style type="text/css">
	.st0{fill:#FFFFFF;}
</style>
<g>
	<g>
		<path class="st0" d="M9.5,12.7c-0.8,0-1.6-0.2-2.4-0.6C6,11.6,4.8,10.8,3.6,9.6C2.4,8.4,1.5,7.2,0.9,6C0.5,5.1,0.3,4.2,0.3,3.4
			C0.3,2,1,1.2,1,1.2l0.7-0.7c0.2-0.2,0.4-0.3,0.7-0.3s0.5,0.1,0.7,0.3l2.3,2.3c0.2,0.2,0.3,0.4,0.3,0.7c0,0.3-0.1,0.5-0.3,0.7
			L4.6,5c0.2,0.3,0.6,1.2,1.4,2c0.8,0.8,1.6,1.2,1.9,1.3l0.8-0.8c0.2-0.2,0.4-0.3,0.7-0.3s0.5,0.1,0.7,0.3l2.3,2.3
			c0.2,0.2,0.3,0.4,0.3,0.7s-0.1,0.5-0.3,0.7l-0.7,0.7c0,0-0.8,0.8-2.2,0.8C9.6,12.7,9.5,12.7,9.5,12.7z M12.3,11.1L12.3,11.1
			L12.3,11.1z"/>
	</g>
</g>
</svg>
