<?xml version="1.0" encoding="utf-8"?>
<!-- Generator: Adobe Illustrator 27.9.0, SVG Export Plug-In . SVG Version: 6.00 Build 0)  -->
<svg version="1.1" id="Слой_1" xmlns="http://www.w3.org/2000/svg" xmlns:xlink="http://www.w3.org/1999/xlink" x="0px" y="0px"
	 viewBox="0 0 22 24" style="enable-background:new 0 0 22 24;" xml:space="preserve">
<style type="text/css">
	.st0{fill:#FF5B00;}
</style>
<g>
	<g>
		<g>
			<path class="st0" d="M4.4,10.8c-0.1,0-0.1-0.1-0.1-0.1V9c0-0.1,0.1-0.1,0.1-0.1h1.7c0.1,0,0.1,0.1,0.1,0.1v1.7
				c0,0.1-0.1,0.1-0.1,0.1H4.4z"/>
			<path class="st0" d="M1.2,21.6C0.5,21.6,0,21,0,20.4V3.6c0-0.7,0.5-1.2,1.2-1.2H4c0.2,0,0.3-0.1,0.3-0.3V1.3
				c0-0.6,0.5-1.1,1.1-1.1h8.4c0.6,0,1.1,0.5,1.1,1.1v0.8c0,0.2,0.1,0.3,0.3,0.3H18c0.7,0,1.2,0.5,1.2,1.2v6.3
				c0,0.1-0.1,0.1-0.1,0.1l-1.8-0.9c0,0-0.1-0.1-0.1-0.1V4.7c0-0.2-0.1-0.3-0.3-0.3h-1.7c-0.2,0-0.3,0.1-0.3,0.3v0.8
				c0,0.6-0.5,1.1-1.1,1.1H5.4C4.8,6.5,4.3,6,4.3,5.5V4.7c0-0.2-0.1-0.3-0.3-0.3H2.3C2.1,4.4,2,4.5,2,4.7v14.6
				c0,0.2,0.1,0.3,0.3,0.3h7.8c0.1,0,0.1,0,0.1,0.1c0.2,0.6,0.5,1.2,0.7,1.7c0,0,0,0.1,0,0.1c0,0-0.1,0.1-0.1,0.1H1.2z M6.6,2.2
				c-0.2,0-0.3,0.1-0.3,0.3v1.7c0,0.2,0.1,0.3,0.3,0.3h6c0.2,0,0.3-0.1,0.3-0.3V2.5c0-0.2-0.1-0.3-0.3-0.3H6.6z"/>
			<path class="st0" d="M4.4,17.3c-0.1,0-0.1-0.1-0.1-0.1v-1.7c0-0.1,0.1-0.1,0.1-0.1h1.7c0.1,0,0.1,0.1,0.1,0.1v1.7
				c0,0.1-0.1,0.1-0.1,0.1H4.4z"/>
			<path class="st0" d="M4.4,14c-0.1,0-0.1-0.1-0.1-0.1v-1.7c0-0.1,0.1-0.1,0.1-0.1h1.7c0.1,0,0.1,0.1,0.1,0.1v1.7
				C6.3,14,6.2,14,6.1,14H4.4z"/>
		</g>
		<path class="st0" d="M16.2,23.7C16.2,23.7,16.2,23.7,16.2,23.7l-1-0.5c-2.9-1.5-4.8-4.4-4.8-7.7v-2.3c0,0,0-0.1,0.1-0.1l4.9-2.4
			c0.3-0.1,0.5-0.2,0.8-0.2c0.3,0,0.6,0.1,0.8,0.2l4.9,2.4c0,0,0.1,0.1,0.1,0.1v2.3c0,3.3-1.8,6.2-4.8,7.7L16.2,23.7L16.2,23.7z
			 M16.2,12.5c0,0-0.1,0-0.1,0l-3.5,1.8c-0.1,0.1-0.2,0.2-0.2,0.3v1c0,2.5,1.4,4.8,3.7,6c0,0,0.1,0,0.1,0c0,0,0.1,0,0.1,0
			c2.3-1.1,3.7-3.4,3.7-6v-1c0-0.1-0.1-0.2-0.2-0.3l-3.5-1.8C16.3,12.5,16.3,12.5,16.2,12.5z"/>
		<path class="st0" d="M16.2,19.5C16.2,19.5,16.2,19.5,16.2,19.5l-2.5-2.1c0,0,0-0.1,0-0.1c0,0,0-0.1,0-0.1l0.8-0.9c0,0,0.1,0,0.1,0
			l1.3,1.1c0.1,0,0.1,0.1,0.2,0.1c0.1,0,0.2,0,0.2-0.1l2-2.3c0,0,0.1,0,0.1,0l1,0.8c0,0,0.1,0.1,0,0.2L16.2,19.5
			C16.3,19.5,16.3,19.5,16.2,19.5z"/>
	</g>
</g>
</svg>
