<?xml version="1.0" encoding="utf-8"?>
<!-- Generator: Adobe Illustrator 27.9.0, SVG Export Plug-In . SVG Version: 6.00 Build 0)  -->
<svg version="1.1" id="Слой_1" xmlns="http://www.w3.org/2000/svg" xmlns:xlink="http://www.w3.org/1999/xlink" x="0px" y="0px"
	 viewBox="0 0 24 25" style="enable-background:new 0 0 24 25;" xml:space="preserve">
<style type="text/css">
	.st0{fill:#FF5B00;}
</style>
<g>
	<path class="st0" d="M20.5,8.2h1.1c1.2,0,2.2,1,2.2,2.2v4.2c0,1.2-1,2.2-2.2,2.2h-1.1c0,0,0,0,0,0c-0.5,4-3.8,7.1-7.9,7.4
		c-0.3,0-0.6-0.3-0.6-0.6v-1c0-0.3,0.2-0.6,0.6-0.6c3.3-0.3,5.8-3,5.8-6.4l0-6.1c0-3.5-2.7-6.6-6.2-6.7C8.6,2.8,5.6,5.7,5.6,9.3v6.4
		c0,0.6-0.5,1.1-1.1,1.1H2.4c-1.2,0-2.2-1-2.2-2.2v-4.2c0-1.2,1-2.2,2.2-2.2h1.1c0,0,0,0,0,0C4.1,4,7.7,0.8,12,0.8
		C16.3,0.8,19.9,4,20.5,8.2C20.5,8.2,20.5,8.2,20.5,8.2z M2.4,10.4v4.3h1.1v-4.3H2.4z M20.5,10.4v4.3h1.1v-4.3H20.5z M7.8,16
		l0.5-0.8c0.2-0.3,0.5-0.3,0.8-0.2c0.9,0.4,1.9,0.7,2.9,0.7s2-0.3,2.9-0.7c0.3-0.1,0.6-0.1,0.8,0.2l0.5,0.8c0.2,0.3,0.1,0.7-0.2,0.8
		c-1.2,0.6-2.6,1-4,1c-1.4,0-2.8-0.4-4-1C7.7,16.7,7.6,16.3,7.8,16z"/>
</g>
</svg>
