<svg width="57" height="41" viewBox="0 0 57 41" fill="none" xmlns="http://www.w3.org/2000/svg">
<path d="M42.66 37.672V25.532C42.66 25.262 42.56 25.012 42.38 24.802C40.97 23.182 40 21.182 39.65 18.962C39.57 18.432 39.1 18.052 38.56 18.052H36.76C36.15 18.052 35.65 18.552 35.65 19.162V37.672H31.8V24.512C31.8 23.872 31.28 23.362 30.65 23.362H25.96C25.32 23.362 24.81 23.882 24.81 24.512V37.672H20.96V29.072C20.96 28.432 20.44 27.922 19.81 27.922H15.12C14.48 27.922 13.97 28.442 13.97 29.072V37.672H10.12V33.182C10.12 32.542 9.6 32.032 8.97 32.032H4.28C3.64 32.032 3.13 32.552 3.13 33.182V37.672H1.25C0.56 37.672 0 38.232 0 38.922C0 39.612 0.56 40.172 1.25 40.172H51.22C51.91 40.172 52.47 39.612 52.47 38.922C52.47 38.232 51.91 37.672 51.22 37.672H42.66Z" fill="#FF5B00"/>
<path d="M1.6 29.162C1.84 29.582 2.38 29.732 2.79 29.482L22.62 17.632C22.73 17.572 22.86 17.562 22.97 17.622L29.54 20.992C29.68 21.062 29.86 21.032 29.97 20.912L41.45 8.57203C41.58 8.43203 41.79 8.41204 41.94 8.53204L43.3 9.58204C43.51 9.74204 43.81 9.64203 43.87 9.39203L46.32 0.362035C46.38 0.132035 46.16 -0.0679618 45.95 0.0220383C44.16 0.732038 38.72 3.17204 36.81 3.87204C36.54 3.97204 36.49 4.32203 36.72 4.50203L38.27 5.70204C38.44 5.83204 38.46 6.07204 38.32 6.23204C36.8 7.90204 29.13 16.292 29.03 16.292C28.92 16.292 22.46 12.852 22.42 12.952C22.39 13.042 5.3 25.492 1.81 28.032C1.46 28.292 1.35 28.772 1.57 29.152L1.6 29.162Z" fill="#FF5B00"/>
<path d="M48.99 10.532C44.8475 10.532 41.49 13.8895 41.49 18.032C41.49 22.1745 44.8475 25.532 48.99 25.532C53.1325 25.532 56.49 22.1745 56.49 18.032C56.49 13.8895 53.1325 10.532 48.99 10.532ZM51.5936 15.2807C51.5392 15.3973 51.4693 15.5761 51.376 15.817C51.3449 15.9491 51.2983 16.1434 51.2283 16.3999C51.1972 16.4932 51.1584 16.532 51.0884 16.532C51.0884 16.532 50.9097 16.4465 50.5599 16.2833C50.2102 16.1201 49.9226 16.0346 49.705 16.0346C49.2698 16.0346 49.0522 16.2367 49.0522 16.6408C49.0522 16.8662 49.2542 17.1072 49.6584 17.3559C50.3035 17.7445 50.6765 17.9854 50.7853 18.0787C51.1895 18.4362 51.3915 18.8559 51.3915 19.3455C51.3915 20.3947 50.7465 21.0942 49.4485 21.444C49.4796 22.0579 49.4952 22.3999 49.4952 22.4699C49.4952 22.5087 49.4563 22.532 49.363 22.5398C49.3086 22.5476 49.2231 22.5476 49.1143 22.5398C48.99 22.532 48.9278 22.5243 48.9356 22.5243C48.8812 22.5243 48.8112 22.5243 48.7102 22.5476C48.6092 22.5709 48.5392 22.5709 48.4926 22.5709C48.4615 22.5709 48.4304 22.5709 48.4071 22.5554C48.3838 22.5243 48.376 22.4232 48.376 22.2678C48.376 22.1434 48.376 21.9491 48.3993 21.6927C47.3579 21.6927 46.8294 21.6227 46.8138 21.475C46.8138 21.4517 46.8138 21.4129 46.8138 21.3662C46.8138 21.3041 46.8138 21.2652 46.8138 21.2497C46.8138 21.0942 46.7983 20.9077 46.775 20.6901C46.7672 20.6279 46.7361 20.5035 46.6895 20.3248C46.6428 20.1616 46.6195 20.0372 46.6195 19.9595C46.6195 19.8818 46.6662 19.8351 46.7516 19.8351C46.8527 19.8351 47.0237 19.8662 47.2646 19.9206C47.5133 19.975 47.6998 20.0061 47.8397 20.0061C48.5237 20.0061 48.8656 19.7963 48.8656 19.3688C48.8656 19.1434 48.6713 18.9025 48.275 18.6227C47.6299 18.1797 47.2646 17.9077 47.1713 17.8144C46.7827 17.4414 46.5807 17.0217 46.5807 16.5631C46.5807 16.0424 46.7672 15.5916 47.148 15.1952C47.5055 14.8222 47.9408 14.5813 48.4615 14.4802C48.4615 14.4569 48.4615 14.3636 48.4459 14.2004C48.4459 14.0372 48.4459 13.9051 48.4459 13.8118C48.4615 13.6797 48.5004 13.6175 48.5548 13.6175H49.5574C49.604 13.6175 49.6351 13.6797 49.6428 13.7963C49.6506 13.8818 49.6584 13.9984 49.6428 14.1538C49.6428 14.3636 49.6351 14.4491 49.6351 14.418C49.8605 14.4336 50.2335 14.5191 50.7387 14.6823C51.3216 14.8688 51.6092 15.0243 51.6092 15.1564C51.6092 15.1875 51.6014 15.2341 51.5781 15.3118L51.5936 15.2807Z" fill="#FF5B00"/>
</svg>
