<svg width="53" height="42" viewBox="0 0 53 42" fill="none" xmlns="http://www.w3.org/2000/svg">
<path d="M1.25 8.66992C1.93997 8.66992 2.49995 9.22996 2.5 9.91992V38.9102H51.2197C51.9097 38.9102 52.4697 39.4702 52.4697 40.1602C52.4697 40.8501 51.9097 41.4102 51.2197 41.4102H1.25C0.560048 41.4102 7.73933e-05 40.8501 0 40.1602V9.91992C4.95332e-05 9.22996 0.560031 8.66992 1.25 8.66992Z" fill="#FF5B00"/>
<path d="M40.25 16.7197C40.2502 15.9699 41.06 15.51 41.71 15.8799L50.9795 21.2305C51.6295 21.6005 51.6295 22.5402 50.9795 22.9102L41.71 28.2598C41.06 28.6398 40.25 28.1699 40.25 27.4199V24.6602H39.8496C39.7395 24.6902 39.5197 24.7706 39.4697 24.9404L38.0801 28.8701C37.93 29.33 37.3097 29.3196 37.1797 28.8496L36.0703 24.9902C36.0104 24.7804 35.8602 24.6805 35.6904 24.6504H34.9795C34.9094 24.6705 34.7799 24.7206 34.75 24.8203L33.8301 27.2197C33.7301 27.4997 33.3195 27.49 33.2295 27.21L32.4902 24.8604C32.4502 24.7404 32.35 24.6802 32.25 24.6602H31.5C31.39 24.6901 31.1305 24.79 31.0703 25.0098L29.5303 29.7998C29.3703 30.3597 28.6805 30.3499 28.5303 29.7803L27.2998 25.0703C27.2398 24.8104 27.06 24.6805 26.8701 24.6504H26.6396C26.5689 24.6908 26.2604 24.8508 26.1904 25.2598L24.6504 33.4199C24.4904 34.3699 23.8004 34.3499 23.6504 33.3799L22.4199 25.3701C22.36 24.9404 22.1801 24.7006 21.9902 24.6504H18.3496C18.2595 24.6705 18.0802 24.7403 18.0303 24.8701L16.8203 28C16.6903 28.3699 16.1505 28.3599 16.0303 27.9902L15.0703 24.9199C15.0104 24.76 14.8801 24.6705 14.7402 24.6504H14.2998C14.2194 24.6905 13.9304 24.8203 13.8604 25.1396L12.3203 31.7402C12.1603 32.5101 11.4703 32.4899 11.3203 31.71L10.0898 25.2305C10.0298 24.8805 9.85991 24.6904 9.66992 24.6504H9.38965C9.30931 24.6806 9.08996 24.7804 9.04004 25L7.76953 29.79C7.62947 30.3499 7.06042 30.3395 6.94043 29.7695L5.91992 25.0596C5.85987 24.7998 5.71949 24.6696 5.55957 24.6396H5.29004V24.6699C4.56004 24.6699 3.96973 24.0796 3.96973 23.3496V20.8301C3.96973 20.1001 4.56004 19.5098 5.29004 19.5098H40.25V16.7197Z" fill="#FF5B00"/>
<path d="M35.2598 0C35.5398 0 35.7598 0.22 35.7598 0.5V2.46973L37.0801 1.15039C37.2801 0.950391 37.59 0.950391 37.79 1.15039C37.9898 1.3504 37.99 1.66042 37.79 1.86035L35.9805 3.66992C35.9205 3.72992 35.8398 3.77004 35.7598 3.79004V6.82031L38.3799 5.30957C38.3699 5.22972 38.3599 5.14941 38.3799 5.05957L39.04 2.58984C39.1101 2.32994 39.3804 2.17025 39.6504 2.24023C39.91 2.31038 40.0697 2.57988 40 2.84961L39.5195 4.65039L41.2197 3.66992C41.4597 3.52994 41.7604 3.6097 41.9004 3.84961C42.0404 4.08961 41.9597 4.39027 41.7197 4.53027L40.0195 5.50977L41.8203 5.99023C42.08 6.06036 42.2397 6.32985 42.1699 6.59961C42.0999 6.85961 41.8296 7.0202 41.5596 6.9502L39.0898 6.29004C39.0099 6.27002 38.9398 6.22011 38.8799 6.16016L36.2598 7.66992L38.8799 9.17969C38.9299 9.11977 39 9.06981 39.0898 9.0498L41.5596 8.38965C41.8196 8.30965 42.0999 8.47023 42.1699 8.74023C42.2497 9.00005 42.09 9.27946 41.8203 9.34961L40.0195 9.83008L41.7197 10.8096C41.9597 10.9496 42.0404 11.2502 41.9004 11.4902C41.7604 11.7302 41.4597 11.8099 41.2197 11.6699L39.5195 10.6904L40 12.4902C40.0798 12.75 39.92 13.0294 39.6504 13.0996C39.3904 13.1696 39.11 13.02 39.04 12.75L38.3799 10.2803C38.3499 10.1904 38.3599 10.1102 38.3799 10.0303L35.7598 8.51953V11.5498C35.8398 11.5698 35.9205 11.6099 35.9805 11.6699L37.79 13.4805C37.9898 13.6805 37.99 13.9905 37.79 14.1904C37.5901 14.3902 37.28 14.3901 37.0801 14.1904L35.7598 12.8701V14.8398C35.7598 15.1198 35.5398 15.3398 35.2598 15.3398C34.9799 15.3397 34.7598 15.1198 34.7598 14.8398V12.8701L33.4404 14.1904C33.2406 14.3903 32.9305 14.39 32.7305 14.1904C32.5305 13.9904 32.5305 13.6805 32.7305 13.4805L34.54 11.6699C34.6 11.61 34.6798 11.5698 34.7598 11.5498V8.51953L32.1396 10.0303C32.1496 10.1102 32.1596 10.1904 32.1396 10.2803L31.4805 12.75C31.4105 13.01 31.1401 13.1696 30.8701 13.0996C30.6102 13.0296 30.4497 12.7601 30.5195 12.4902L31 10.6904L29.2998 11.6699C29.0599 11.8098 28.7602 11.73 28.6201 11.4902C28.4801 11.2502 28.5598 10.9496 28.7998 10.8096L30.5 9.83008L28.7002 9.34961C28.4403 9.27964 28.2798 9.01013 28.3496 8.74023C28.4196 8.48027 28.69 8.31972 28.96 8.38965L31.4297 9.0498C31.5095 9.06977 31.5797 9.11983 31.6396 9.17969L34.2598 7.66992L31.6396 6.16016C31.5897 6.22004 31.5196 6.27007 31.4297 6.29004L28.96 6.9502C28.7 7.03014 28.4196 6.86958 28.3496 6.59961C28.2699 6.33974 28.4304 6.06019 28.7002 5.99023L30.5 5.50977L28.7998 4.53027C28.5598 4.39027 28.4801 4.0896 28.6201 3.84961C28.7602 3.60994 29.0599 3.53013 29.2998 3.66992L31 4.65039L30.5195 2.84961C30.4399 2.58975 30.6003 2.31019 30.8701 2.24023C31.1301 2.17027 31.4105 2.31988 31.4805 2.58984L32.1396 5.05957C32.1696 5.14945 32.1596 5.22968 32.1396 5.30957L34.7598 6.82031V3.79004C34.6798 3.77002 34.6 3.72987 34.54 3.66992L32.7305 1.86035C32.5305 1.66035 32.5305 1.35039 32.7305 1.15039C32.9305 0.950434 33.2404 0.950405 33.4404 1.15039L34.7598 2.46973V0.5C34.7598 0.220075 34.9799 0.000117606 35.2598 0Z" fill="#FF5B00"/>
</svg>
