<?xml version="1.0" encoding="utf-8"?>
<!-- Generator: Adobe Illustrator 27.9.0, SVG Export Plug-In . SVG Version: 6.00 Build 0)  -->
<svg version="1.1" id="Слой_1" xmlns="http://www.w3.org/2000/svg" xmlns:xlink="http://www.w3.org/1999/xlink" x="0px" y="0px"
	 viewBox="0 0 23 19" style="enable-background:new 0 0 23 19;" xml:space="preserve">
<style type="text/css">
	.st0{fill:#FF5B00;}
</style>
<g>
	<g>
		<path class="st0" d="M15.2,2.5c-2.1,0-3.8,1.7-3.8,3.8s1.7,3.8,3.8,3.8S19,8.4,19,6.3S17.3,2.5,15.2,2.5z M9.3,6.3
			c0-3.3,2.7-5.9,5.9-5.9s5.9,2.7,5.9,5.9c0,1.2-0.4,2.4-1,3.4l2.9,2.9L21.5,14l-2.9-2.9c-1,0.7-2.1,1-3.4,1
			C12,12.2,9.3,9.5,9.3,6.3z M0,1.4h7.1v2.2H0V1.4z M0,9h7.1v2.2H0V9z M21.2,16.5v2.2H0v-2.2H21.2z"/>
	</g>
</g>
</svg>
