<svg width="53" height="42" viewBox="0 0 53 42" fill="none" xmlns="http://www.w3.org/2000/svg">
<path d="M51.7429 39.5021H29.406L28.35 34.806L41.3539 33.8568C41.7964 33.8268 42.1786 33.5471 42.3495 33.1374L43.0636 31.3789C43.2547 30.9093 43.3955 30.4097 42.8926 30.4396L10.0461 32.9176C9.28177 32.9575 8.73869 32.428 8.49732 31.7086L1.69871 9.52707C1.6082 9.21733 1.17574 9.17736 1.03494 9.46712L0.139862 11.2257C-0.0210512 11.5854 -0.0411654 11.985 0.0694627 12.3647L6.68704 34.9059C6.81778 35.3356 7.10944 35.7053 7.51172 35.9151L7.76315 36.055C8.04475 36.2048 8.36657 36.2748 8.67834 36.2448L12.0274 35.995L11.2429 39.5021H1.48751C0.793574 39.5021 0.230376 40.0616 0.230376 40.7511C0.230376 41.4405 0.793574 42 1.48751 42H51.7429C52.4368 42 53 41.4405 53 40.7511C53 40.0616 52.4368 39.5021 51.7429 39.5021ZM14.6824 39.5021L15.5272 35.7452L24.9709 35.0558L25.9665 39.5121H14.6824V39.5021Z" fill="#FF5B00"/>
<path d="M30.0195 22.7461L38.8798 22.5762L36.0236 17.4205L27.3041 17.2906L30.0195 22.7461Z" fill="#FF5B00"/>
<path d="M42.5808 29.2806L39.8252 24.2948L30.8744 24.4546L33.5797 29.8701L42.5808 29.2806Z" fill="#FF5B00"/>
<path d="M16.4625 17.1307L18.836 22.9459L28.0986 22.776L25.343 17.2606L16.4625 17.1307Z" fill="#FF5B00"/>
<path d="M5.67127 16.9709L7.63241 23.1457L16.9755 22.9759L14.5819 17.1008L5.67127 16.9709Z" fill="#FF5B00"/>
<path d="M24.4781 15.5221L21.6118 9.76687L13.1739 9.05746L15.7585 15.3922L24.4781 15.5221Z" fill="#FF5B00"/>
<path d="M13.8678 15.3722L11.2328 8.8976L2.87539 8.18819L5.11813 15.2423L13.8678 15.3722Z" fill="#FF5B00"/>
<path d="M20.1434 30.7594L17.6694 24.6944L8.18555 24.8643L10.2674 31.4088L20.1434 30.7594Z" fill="#FF5B00"/>
<path d="M31.6991 30L28.9535 24.4846L19.54 24.6645L21.9738 30.6395L31.6991 30Z" fill="#FF5B00"/>
<path d="M35.0581 15.672L32.2924 10.6661L23.6333 9.93673L26.4291 15.552L35.0581 15.672Z" fill="#FF5B00"/>
<path d="M44.9876 4.56921L46.161 3.39582C46.4563 3.10053 46.4563 2.63429 46.161 2.339C45.8657 2.04371 45.3995 2.04371 45.1042 2.339L43.9308 3.51238C43.6355 3.80767 43.6355 4.27392 43.9308 4.56921C44.2261 4.8645 44.6923 4.8645 44.9876 4.56921Z" fill="#FF5B00"/>
<path d="M43.9308 11.4308C43.6355 11.7261 43.6355 12.1923 43.9308 12.4876L45.1042 13.661C45.3995 13.9563 45.8657 13.9563 46.161 13.661C46.4563 13.3657 46.4563 12.8995 46.161 12.6042L44.9876 11.4308C44.6923 11.1355 44.2261 11.1355 43.9308 11.4308Z" fill="#FF5B00"/>
<path d="M40.4961 3.14716C40.908 3.14716 41.2421 2.81302 41.2421 2.40117V0.745993C41.2421 0.334143 40.908 0 40.4961 0C40.0843 0 39.7501 0.334143 39.7501 0.745993V2.40117C39.7501 2.81302 40.0843 3.14716 40.4961 3.14716Z" fill="#FF5B00"/>
<path d="M45.3528 8.00389C45.3528 8.41574 45.687 8.74988 46.0988 8.74988H47.754C48.1659 8.74988 48.5 8.41574 48.5 8.00389C48.5 7.59204 48.1659 7.25789 47.754 7.25789H46.0988C45.687 7.25789 45.3528 7.59204 45.3528 8.00389Z" fill="#FF5B00"/>
<path d="M36.0124 4.56921C36.3077 4.8645 36.7739 4.8645 37.0692 4.56921C37.3645 4.27392 37.3645 3.80767 37.0692 3.51238L35.8958 2.339C35.6005 2.04371 35.1343 2.04371 34.839 2.339C34.5437 2.63429 34.5437 3.10053 34.839 3.39582L36.0124 4.56921Z" fill="#FF5B00"/>
<path d="M33.246 8.74988H34.9012C35.313 8.74988 35.6472 8.41574 35.6472 8.00389C35.6472 7.59204 35.313 7.25789 34.9012 7.25789H33.246C32.8341 7.25789 32.5 7.59204 32.5 8.00389C32.5 8.41574 32.8341 8.74988 33.246 8.74988Z" fill="#FF5B00"/>
<path d="M41.2421 15.254V13.5988C41.2421 13.187 40.908 12.8528 40.4961 12.8528C40.0843 12.8528 39.7501 13.187 39.7501 13.5988V15.254C39.7501 15.6659 40.0843 16 40.4961 16C40.908 16 41.2421 15.6659 41.2421 15.254Z" fill="#FF5B00"/>
<path d="M37.0692 12.4876C37.3645 12.1923 37.3645 11.7261 37.0692 11.4308C36.7739 11.1355 36.3077 11.1355 36.0124 11.4308L34.839 12.6042C34.5437 12.8995 34.5437 13.3657 34.839 13.661C35.1343 13.9563 35.6005 13.9563 35.8958 13.661L37.0692 12.4876Z" fill="#FF5B00"/>
<path d="M43.4209 10.9305C45.0353 9.31609 45.0353 6.69855 43.4209 5.08411C41.8064 3.46966 39.1889 3.46966 37.5744 5.08411C35.96 6.69855 35.96 9.31609 37.5744 10.9305C39.1889 12.545 41.8064 12.545 43.4209 10.9305Z" fill="#FF5B00"/>
</svg>
