<?xml version="1.0" encoding="utf-8"?>
<!-- Generator: Adobe Illustrator 27.9.0, SVG Export Plug-In . SVG Version: 6.00 Build 0)  -->
<svg version="1.1" id="Слой_1" xmlns="http://www.w3.org/2000/svg" xmlns:xlink="http://www.w3.org/1999/xlink" x="0px" y="0px"
	 viewBox="0 0 22 22" style="enable-background:new 0 0 22 22;" xml:space="preserve">
<style type="text/css">
	.st0{fill:#FF5B00;}
</style>
<g>
	<g>
		<path class="st0" d="M4.6,17.6c0.5-1.3,1.7-2.2,3.1-2.2c1.4,0,2.7,0.9,3.1,2.2H22v2.2H10.8C10.4,21.1,9.1,22,7.7,22
			c-1.4,0-2.7-0.9-3.1-2.2H0v-2.2H4.6z M11.2,9.9c0.5-1.3,1.7-2.2,3.1-2.2s2.7,0.9,3.1,2.2H22v2.2h-4.6c-0.5,1.3-1.7,2.2-3.1,2.2
			s-2.7-0.9-3.1-2.2H0V9.9H11.2z M4.6,2.2C5.1,0.9,6.3,0,7.7,0c1.4,0,2.7,0.9,3.1,2.2H22v2.2H10.8c-0.5,1.3-1.7,2.2-3.1,2.2
			c-1.4,0-2.7-0.9-3.1-2.2H0V2.2H4.6z M7.7,4.4c0.6,0,1.1-0.5,1.1-1.1S8.3,2.2,7.7,2.2S6.6,2.7,6.6,3.3S7.1,4.4,7.7,4.4z M14.3,12.1
			c0.6,0,1.1-0.5,1.1-1.1s-0.5-1.1-1.1-1.1c-0.6,0-1.1,0.5-1.1,1.1S13.7,12.1,14.3,12.1z M7.7,19.8c0.6,0,1.1-0.5,1.1-1.1
			c0-0.6-0.5-1.1-1.1-1.1s-1.1,0.5-1.1,1.1C6.6,19.3,7.1,19.8,7.7,19.8z"/>
	</g>
</g>
</svg>
