<?xml version="1.0" encoding="utf-8"?>
<!-- Generator: Adobe Illustrator 27.9.0, SVG Export Plug-In . SVG Version: 6.00 Build 0)  -->
<svg version="1.1" id="Слой_1" xmlns="http://www.w3.org/2000/svg" xmlns:xlink="http://www.w3.org/1999/xlink" x="0px" y="0px"
	 viewBox="0 0 14 14" style="enable-background:new 0 0 14 14;" xml:space="preserve">
<style type="text/css">
	.st0{fill:#FFFFFF;}
</style>
<path class="st0" d="M0.2,5.7c0-0.8,0.1-1.5,0.4-2.2c0.3-0.7,0.7-1.3,1.2-1.8c0.5-0.5,1.1-0.9,1.8-1.2C4.3,0.2,5,0.1,5.7,0.1
	s1.5,0.1,2.2,0.4c0.7,0.3,1.3,0.7,1.8,1.2c0.5,0.5,0.9,1.1,1.2,1.8c0.3,0.7,0.4,1.4,0.4,2.2c0,0.6-0.1,1.2-0.3,1.8
	c-0.2,0.6-0.5,1.1-0.8,1.6l3.4,3.4c0.1,0.1,0.1,0.2,0.2,0.3c0,0.1,0.1,0.2,0.1,0.3c0,0.2,0,0.3-0.1,0.4c-0.1,0.1-0.2,0.2-0.3,0.3
	c-0.1,0.1-0.3,0.1-0.4,0.1c-0.1,0-0.2,0-0.3-0.1c-0.1,0-0.2-0.1-0.3-0.2L9,10.2c-0.5,0.3-1,0.6-1.5,0.8c-0.6,0.2-1.1,0.3-1.7,0.3
	c-0.8,0-1.5-0.1-2.2-0.4c-0.7-0.3-1.3-0.7-1.8-1.2C1.3,9.1,0.9,8.5,0.6,7.9C0.3,7.2,0.2,6.4,0.2,5.7z M1.4,5.7
	c0,0.6,0.1,1.2,0.3,1.7c0.2,0.5,0.5,1,0.9,1.4C3,9.2,3.5,9.5,4,9.7c0.5,0.2,1.1,0.3,1.7,0.3c0.6,0,1.2-0.1,1.7-0.3
	c0.5-0.2,1-0.5,1.4-0.9c0.4-0.4,0.7-0.9,0.9-1.4c0.2-0.5,0.3-1.1,0.3-1.7c0-0.6-0.1-1.2-0.3-1.7C9.6,3.4,9.3,3,8.9,2.6
	C8.4,2.2,8,1.9,7.4,1.6C6.9,1.4,6.4,1.3,5.7,1.3C5.1,1.3,4.6,1.4,4,1.6C3.5,1.9,3,2.2,2.6,2.6C2.2,3,1.9,3.4,1.7,4
	C1.5,4.5,1.4,5.1,1.4,5.7z"/>
</svg>
