<?xml version="1.0" encoding="utf-8"?>
<!-- Generator: Adobe Illustrator 27.9.0, SVG Export Plug-In . SVG Version: 6.00 Build 0)  -->
<svg version="1.1" id="Слой_1" xmlns="http://www.w3.org/2000/svg" xmlns:xlink="http://www.w3.org/1999/xlink" x="0px" y="0px"
	 viewBox="0 0 26 26" style="enable-background:new 0 0 26 26;" xml:space="preserve">
<style type="text/css">
	.st0{fill:#FF5B00;}
</style>
<path class="st0" d="M21.5,15.5c-1.5-1.5-3.9-1.5-5.3,0c-1.5,1.5-1.5,3.9,0,5.3l2.7,2.7l2.7-2.7C23,19.4,23,17,21.5,15.5z
	 M20.6,19.9l-1.8,1.8L17,19.9c-1-1-1-2.6,0-3.6c1-1,2.6-1,3.6,0C21.6,17.4,21.6,19,20.6,19.9z M9.2,14.1c-0.9,0.9-1.8,1.8-2.8,2.8
	c1.3,0.5,2.6,0.7,3.9,0.6c0.5,0,0.8,0.1,0.8,0.5c0,0.4-0.2,0.7-0.7,0.7c-4.4,0.5-8.2-2.3-9.6-5.8C-1,8.1,1.3,2.7,5.9,0.8
	c5.2-2.1,10.9,0.7,12.5,6c0.4,1.3,0.5,2.5,0.3,3.8c-0.1,0.4-0.3,0.7-0.7,0.7c-0.4,0-0.6-0.4-0.6-0.8c0.5-3.6-1.4-6.8-4.6-8.4
	c-4.3-2-9.6,0.3-11,4.8c-0.5,1.7-0.5,3.4,0,5.1c0,0.1,0.1,0.3,0.2,0.5c0.2-0.2,0.4-0.4,0.5-0.5c0.7-0.7,1.4-1.4,2.1-2.1
	C4.9,9.6,5,9.4,5,9.1c-0.3-3.8,2.9-6.8,6.5-6c0.3,0.1,0.6,0.3,0.7,0.5c0.1,0.2-0.1,0.6-0.3,0.8c-0.6,0.6-1.2,1.2-1.8,1.8
	C9.9,6.4,9.8,6.6,9.9,6.9c0,0,0,0.1,0,0.1c0.2,0.5,0.2,1.2,0.6,1.5c0.3,0.3,1,0.3,1.5,0.5c0.3,0.1,0.5,0,0.7-0.2
	c0.6-0.6,1.2-1.2,1.8-1.8c0.2-0.2,0.5-0.3,0.8-0.3c0.4,0,0.5,0.4,0.5,0.7c0.6,3-1.4,5.9-4.4,6.4c-0.5,0.1-1.1,0-1.7,0.1
	C9.5,14,9.3,14,9.2,14.1z M8.5,13c0.3-0.3,0.6-0.4,1.1-0.3c1.9,0.3,3.8-0.6,4.6-2.3c0.2-0.5,0.3-1,0.5-1.5c-0.1,0-0.1-0.1-0.2-0.1
	c-0.4,0.4-0.9,0.9-1.3,1.3c-0.3,0.3-0.6,0.4-1,0.3c-0.8-0.2-1.6-0.4-2.3-0.6C9.5,9.6,9.3,9.4,9.2,9C9,8.3,8.8,7.5,8.6,6.7
	C8.4,6.3,8.5,6,8.8,5.7c0.5-0.4,0.9-0.8,1.3-1.2c0-0.1-0.1-0.1-0.1-0.2c-0.3,0.1-0.7,0.1-1,0.2C7,5.2,5.9,7.1,6.3,9.3
	c0.1,0.4,0,0.8-0.3,1.1c-0.8,0.7-1.5,1.5-2.3,2.2c-0.3,0.3-0.7,0.7-1,1c0.7,1.1,1.5,2,2.7,2.7C6.4,15.2,7.5,14.1,8.5,13z M25.8,19
	c0,3.7-3.2,6.9-7,6.9c-3.9,0-7-3.1-7-7.2c0-3.6,3.2-6.7,7-6.7C22.7,12,25.8,15.1,25.8,19z M24.6,19c0-3.2-2.5-5.8-5.7-5.8
	c-3.1,0-5.8,2.5-5.7,5.5c0,3.3,2.5,5.9,5.7,5.9C22,24.6,24.5,22.1,24.6,19z"/>
</svg>
