<?xml version="1.0" encoding="utf-8"?>
<!-- Generator: Adobe Illustrator 27.9.0, SVG Export Plug-In . SVG Version: 6.00 Build 0)  -->
<svg version="1.1" id="Слой_1" xmlns="http://www.w3.org/2000/svg" xmlns:xlink="http://www.w3.org/1999/xlink" x="0px" y="0px"
	 viewBox="0 0 14 12" style="enable-background:new 0 0 14 12;" xml:space="preserve">
<style type="text/css">
	.st0{fill:#FFFFFF;}
</style>
<g>
	<g>
		<path class="st0" d="M12.6,0.5C10.8,1.2,3.2,4.4,1.1,5.3c-1.4,0.6-0.6,1.1-0.6,1.1s1.2,0.4,2.3,0.7c1,0.3,1.6,0,1.6,0l4.9-3.3
			c1.7-1.2,1.3-0.2,0.9,0.2C9.2,4.9,7.7,6.3,6.5,7.4c-0.6,0.5-0.3,0.9,0,1.1c0.9,0.8,3.4,2.3,3.5,2.4c0.7,0.5,2.2,1.3,2.4-0.3
			l0.9-5.4c0.3-1.8,0.6-3.5,0.6-4C13.9,0,12.6,0.5,12.6,0.5z"/>
	</g>
</g>
</svg>
