<?xml version="1.0" encoding="utf-8"?>
<!-- Generator: Adobe Illustrator 27.9.0, SVG Export Plug-In . SVG Version: 6.00 Build 0)  -->
<svg version="1.1" id="Слой_1" xmlns="http://www.w3.org/2000/svg" xmlns:xlink="http://www.w3.org/1999/xlink" x="0px" y="0px"
	 viewBox="0 0 60 45" style="enable-background:new 0 0 60 45;" xml:space="preserve">
<style type="text/css">
	.st0{fill-rule:evenodd;clip-rule:evenodd;fill:#FF5B00;}
	.st1{fill-rule:evenodd;clip-rule:evenodd;fill:#1D1D1B;}
</style>
<g>
	<path class="st0" d="M52.8,37.5l-0.6,3l0,0c-0.7,3.8-2.2,4.3-5.1,4.3h-0.8l2.2-11.2h1.1C52,33.7,53.5,34.1,52.8,37.5"/>
	<path class="st0" d="M56.2,20.7l-0.6,3l0,0c-0.7,3.8-2.2,4.3-5.1,4.3h-0.8l2.2-11.2h1.1C55.4,16.9,56.9,17.3,56.2,20.7"/>
	<path class="st0" d="M59.3,3.9l-0.6,3l0,0c-0.7,3.8-2.2,4.3-5.1,4.3h-0.8L55,0.1H56C58.5,0.1,60,0.5,59.3,3.9"/>
	<polygon class="st0" points="37.6,44.9 39.7,33.7 34.6,33.7 32.5,44.9 	"/>
	<polygon class="st0" points="42.1,33.7 39.9,44.9 45,44.9 47.1,33.7 	"/>
	<polygon class="st0" points="45.4,16.9 43.3,28.1 48.4,28.1 50.5,16.9 	"/>
	<g>
		<path class="st1" d="M29.3,44.9h-1.1c-2.4,0-3.8-0.3-3.3-3.4l0.8-4.1c0.8-3.3,2.2-3.8,5-3.8h0.8L29.3,44.9z"/>
		<path class="st1" d="M35.8,11.3h-6c-2.2,0-2.8,0.3-3.3,2.6l-3.2,16.5l-2,10.3c-0.6,3-1.4,4.3-3.9,4.3h-4.5c-2.5,0-3.1-0.7-2.5-3.8
			l1.2-6.3l4.1-21c0.4-1.9,0.5-2.5-1.3-2.5H6.2H4c-2.5,0-3.9-0.4-3.3-3.8l0.6-3C2,0.6,3.5,0.1,6.4,0.1h0.2h2.5h1.2h3.3h8.3h3.2h12.8
			L35.8,11.3z"/>
		<path class="st1" d="M32.7,28.1h-1.1c-2.4,0-3.8-0.3-3.3-3.4l0.8-4.1c0.8-3.3,2.2-3.8,5-3.8h0.8L32.7,28.1z"/>
		<polygon class="st1" points="40.9,28.1 43.1,16.9 38,16.9 35.9,28.1 		"/>
		<polygon class="st1" points="44.1,11.3 46.2,0.1 41.2,0.1 39,11.3 		"/>
		<polygon class="st1" points="48.6,0.1 46.4,11.3 51.5,11.3 53.6,0.1 		"/>
	</g>
</g>
</svg>
