<?xml version="1.0" encoding="utf-8"?>
<!-- Generator: Adobe Illustrator 27.9.0, SVG Export Plug-In . SVG Version: 6.00 Build 0)  -->
<svg version="1.1" id="Слой_1" xmlns="http://www.w3.org/2000/svg" xmlns:xlink="http://www.w3.org/1999/xlink" x="0px" y="0px"
	 viewBox="0 0 126 47" style="enable-background:new 0 0 126 47;" xml:space="preserve" width="126px">
<style type="text/css">
	.st0{fill-rule:evenodd;clip-rule:evenodd;fill:#FFFFFF;}
</style>
<path class="st0" d="M109.7,38.5l-0.5,2.4h10.1c0.8,0,1.6-0.1,2.4-0.3c0.5-0.1,1.1-0.4,1.5-0.7c0.4-0.3,0.7-0.7,0.9-1.2
	c0.3-0.5,0.4-1.1,0.6-1.7c0.1-0.5,0.2-1.1,0.1-1.7c0-0.4-0.2-0.7-0.4-1c-0.3-0.3-0.7-0.5-1.1-0.6c-0.7-0.2-1.5-0.2-2.2-0.2h-4.6
	c-0.5,0-1-0.1-1.3-0.4c-0.3-0.4-0.3-0.9-0.2-1.3c0.1-0.5,0.3-0.9,0.7-1.2c0.4-0.3,0.9-0.3,1.3-0.3h8.6l0.5-2.4h-9.7
	c-0.8,0-1.6,0.1-2.4,0.2c-0.5,0.1-1.1,0.3-1.5,0.7c-0.4,0.3-0.7,0.7-0.9,1.1c-0.3,0.5-0.4,1.1-0.5,1.7c-0.1,0.6-0.2,1.2-0.1,1.7
	c0,0.4,0.2,0.7,0.4,1c0.3,0.3,0.7,0.5,1.1,0.6c0.7,0.2,1.5,0.2,2.2,0.2h4.6c0.5,0,1,0.1,1.3,0.4c0.3,0.4,0.3,0.9,0.2,1.3
	c-0.1,0.5-0.3,0.9-0.7,1.2c-0.4,0.3-0.9,0.4-1.4,0.4H109.7z M89.4,35l-0.3,0.9H76.9c0,0.3,0,0.6,0.1,0.9c0.1,0.4,0.4,0.8,0.7,1
	c0.4,0.3,0.9,0.4,1.3,0.5c0.6,0.1,1.3,0.1,1.9,0.1h5.6L86,40.9h-6c-1.4,0-2.9-0.1-4.2-0.4c-0.8-0.2-1.6-0.5-2.1-1.1
	c-0.5-0.5-0.7-1.2-0.7-1.9c0-1,0.1-2.1,0.3-3.2c0.2-1.1,0.5-2.1,0.9-3.1c0.4-0.8,0.9-1.5,1.6-2.1c0.8-0.6,1.7-1,2.7-1.3
	c1.4-0.3,3-0.4,4.4-0.4c1.3,0,2.9,0.1,4.2,0.4c0.8,0.2,1.6,0.5,2.1,1.1c0.5,0.5,0.7,1.1,0.7,1.8c0.1,0.9,0,1.9-0.2,2.8L89.4,35z
	 M77.4,33h8.7l0-0.2c0.5-2.6-1.6-2.8-3.9-2.8c-2.3,0-4.3,0.3-4.7,2.6L77.4,33z M16.5,35l-0.3,0.9H3.9c0,0.3,0,0.6,0.1,0.9
	c0.1,0.4,0.4,0.8,0.7,1c0.4,0.3,0.9,0.4,1.3,0.5c0.6,0.1,1.3,0.1,1.9,0.1h5.6L13,40.9H7c-1.4,0-2.9-0.1-4.2-0.4
	c-0.8-0.2-1.6-0.5-2.1-1.1C0.2,38.9,0,38.2,0,37.5c0-1,0.1-2.1,0.3-3.2c0.2-1.1,0.5-2.1,0.9-3.1c0.4-0.8,0.9-1.5,1.6-2.1
	c0.8-0.6,1.7-1,2.7-1.3c1.4-0.3,3-0.4,4.4-0.4c1.3,0,2.9,0.1,4.2,0.4c0.8,0.2,1.6,0.5,2.1,1.1c0.5,0.5,0.7,1.1,0.7,1.8
	c0.1,0.9,0,1.9-0.2,2.8L16.5,35z M4.5,33h8.7l0-0.2c0.5-2.6-1.6-2.8-3.9-2.8C7,30,5,30.3,4.6,32.6L4.5,33z M30.4,40.9h4.7l-5.1-6.7
	l7.4-6.4h-4.2L28.3,32l-3.1-4.2h-4.7l4.8,6.3l-7.6,6.8h4.3l5-4.6L30.4,40.9z M45.3,30.9h5.4c0.8,0,1.9,0.1,2.4,0.9
	c0.5,0.7,0.3,1.9,0.2,2.7c-0.2,0.9-0.5,2-1.2,2.6c-0.7,0.6-1.7,0.8-2.5,0.8h-5.6L45.3,30.9z M37.6,46.9h4.4l1.2-6h5.3
	c1.2,0,2.5-0.1,3.7-0.4c0.9-0.2,1.8-0.5,2.5-1.1c0.7-0.5,1.2-1.2,1.6-2c0.5-1,0.8-2.1,1-3.2c0.2-1,0.4-2.2,0.3-3.2
	c-0.1-0.7-0.3-1.4-0.7-1.9c-0.5-0.6-1.2-0.9-1.9-1c-1.1-0.3-2.4-0.4-3.6-0.4h-10L37.6,46.9z M71.4,30.5l0.5-2.7h-2.6
	c-1.1,0-2.2,0.1-3.2,0.3c-0.7,0.1-1.5,0.4-2.1,0.8c-0.5,0.3-1,0.8-1.3,1.3c-0.4,0.6-0.6,1.3-0.7,2.1l-1.7,8.7h4.4l1.7-8.6
	c0.1-0.6,0.4-1.1,0.9-1.4c0.6-0.3,1.3-0.4,2-0.4H71.4z M91.9,38.5l-0.5,2.4h10.1c0.8,0,1.6-0.1,2.4-0.3c0.5-0.1,1.1-0.4,1.5-0.7
	c0.4-0.3,0.7-0.7,0.9-1.2c0.3-0.5,0.4-1.1,0.6-1.7c0.1-0.5,0.2-1.1,0.1-1.7c0-0.4-0.2-0.7-0.4-1c-0.3-0.3-0.7-0.5-1.1-0.6
	c-0.7-0.2-1.5-0.2-2.2-0.2h-4.6c-0.5,0-1-0.1-1.3-0.4c-0.3-0.4-0.3-0.9-0.2-1.3c0.1-0.5,0.3-0.9,0.7-1.2c0.4-0.3,0.9-0.3,1.3-0.3
	h8.6l0.5-2.4h-9.7c-0.8,0-1.6,0.1-2.4,0.2c-0.5,0.1-1.1,0.3-1.5,0.7c-0.4,0.3-0.7,0.7-0.9,1.1c-0.3,0.5-0.4,1.1-0.5,1.7
	c-0.1,0.6-0.2,1.2-0.1,1.7c0,0.4,0.2,0.7,0.4,1c0.3,0.3,0.7,0.5,1.1,0.6c0.7,0.2,1.5,0.2,2.2,0.2h4.6c0.5,0,1,0.1,1.3,0.4
	c0.3,0.4,0.3,0.9,0.2,1.3c-0.1,0.5-0.3,0.9-0.7,1.2c-0.4,0.3-0.9,0.4-1.4,0.4H91.9z"/>
<path class="st0" d="M81,5.2l-2.6,13.1h4.4l1.9-9.7h5.1c0.7,0,1.8,0.1,2.3,0.6c0.5,0.5,0.5,1.3,0.4,2l-1.4,7.2h4.4l1.6-8
	c0.1-0.8,0.2-1.6,0.1-2.4c-0.1-0.6-0.4-1.1-0.8-1.5c-0.6-0.5-1.4-0.8-2.1-0.9c-1.2-0.3-2.4-0.3-3.6-0.3H81z M35.7,12.3l-0.3,0.9
	H23.2c0,0.3,0,0.6,0.1,0.9c0.1,0.4,0.4,0.8,0.7,1c0.4,0.3,0.9,0.4,1.3,0.5c0.6,0.1,1.3,0.1,1.9,0.1h5.6l-0.5,2.5h-6
	c-1.4,0-2.9-0.1-4.2-0.4c-0.8-0.2-1.6-0.5-2.1-1.1c-0.5-0.5-0.7-1.2-0.7-1.9c-0.1-1,0.1-2.1,0.3-3.2c0.2-1.1,0.5-2.1,0.9-3.1
	c0.4-0.8,0.9-1.5,1.6-2.1c0.8-0.6,1.7-1,2.7-1.3c1.4-0.3,3-0.4,4.5-0.4c1.3,0,2.9,0.1,4.2,0.4c0.8,0.2,1.6,0.5,2.1,1.1
	c0.5,0.5,0.7,1.1,0.7,1.8c0.1,0.9,0,1.9-0.2,2.8L35.7,12.3z M23.7,10.3h8.7l0-0.2c0.5-2.6-1.6-2.8-3.9-2.8c-2.3,0-4.3,0.3-4.7,2.6
	L23.7,10.3z M110,7.8c0.7,0,1.4,0,2.1,0.2c0.5,0.1,1,0.3,1.3,0.7c0.3,0.4,0.5,0.9,0.5,1.4c0,0.6-0.1,1.1-0.2,1.7
	c-0.1,0.6-0.3,1.1-0.5,1.7c-0.2,0.5-0.5,0.9-0.9,1.3c-0.4,0.4-1,0.6-1.5,0.7c-0.7,0.2-1.4,0.2-2.1,0.2c-0.7,0-1.4,0-2.1-0.2
	c-0.5-0.1-1-0.4-1.3-0.8c-0.3-0.4-0.4-0.9-0.5-1.4c0-0.6,0.1-1.1,0.2-1.7c0.1-0.6,0.3-1.1,0.5-1.7c0.2-0.5,0.5-0.9,0.9-1.3
	c0.4-0.3,0.9-0.6,1.5-0.7C108.6,7.8,109.3,7.8,110,7.8 M107.9,18.6c1.5,0,3-0.1,4.5-0.4c1-0.2,2-0.6,2.8-1.2
	c0.7-0.6,1.3-1.3,1.6-2.1c0.5-1,0.8-2.2,1-3.3c0.2-1,0.4-2.2,0.3-3.2c0-0.7-0.2-1.4-0.7-2c-0.6-0.6-1.4-1-2.2-1.2
	c-1.3-0.3-2.9-0.4-4.3-0.4c-1.5,0-3,0.1-4.4,0.4c-1,0.2-2,0.6-2.8,1.2c-0.7,0.6-1.3,1.3-1.6,2.1c-0.5,1-0.8,2.2-1,3.3
	c-0.2,1-0.4,2.2-0.3,3.3c0,0.7,0.2,1.4,0.7,2c0.5,0.6,1.4,1,2.2,1.1C105,18.5,106.5,18.6,107.9,18.6 M6.3,5.2L5.8,7.8h2.6l-1.2,6.3
	c-0.1,0.6-0.2,1.4-0.1,2c0.1,0.5,0.3,0.9,0.7,1.2c0.5,0.4,1.2,0.6,1.8,0.7c1,0.2,2.1,0.2,3.1,0.2h2.3l0.6-2.8h-1.4
	c-0.6,0-1.4-0.1-1.9-0.4c-0.5-0.4-0.6-1-0.5-1.6l1.1-5.6h4.8l0.5-2.7h-4.8l1-5H9.9l-1,5H6.3z M52.6,15.2h-6.7
	c-0.8,0-1.9-0.1-2.4-0.9c-0.5-0.7-0.3-1.9-0.2-2.7c0.2-0.9,0.5-2,1.2-2.6c0.7-0.6,1.7-0.8,2.6-0.8H54l0.6-3.1H48
	c-1.2,0-2.5,0.1-3.7,0.4c-0.9,0.2-1.8,0.5-2.5,1.1c-0.7,0.5-1.2,1.2-1.6,2c-0.5,1-0.8,2.1-1,3.2c-0.2,1-0.4,2.2-0.3,3.2
	c0.1,0.7,0.3,1.4,0.7,1.9c0.5,0.6,1.2,0.9,1.9,1c1.1,0.3,2.4,0.4,3.6,0.4H52L52.6,15.2z M64.4,0h-4.4l-3.6,18.3h4.4l1.9-9.7h5.1
	c0.7,0,1.8,0.1,2.3,0.6c0.5,0.5,0.5,1.3,0.4,2l-1.4,7.2h4.4l1.6-8c0.1-0.8,0.2-1.6,0.1-2.4c-0.1-0.6-0.4-1.1-0.8-1.5
	c-0.6-0.5-1.4-0.8-2.1-0.9c-1.2-0.3-2.4-0.3-3.6-0.3h-5.3L64.4,0z"/>
</svg>
