<?xml version="1.0" encoding="utf-8"?>
<!-- Generator: Adobe Illustrator 27.9.0, SVG Export Plug-In . SVG Version: 6.00 Build 0)  -->
<svg version="1.1" id="Слой_1" xmlns="http://www.w3.org/2000/svg" xmlns:xlink="http://www.w3.org/1999/xlink" x="0px" y="0px"
	 viewBox="0 0 31 24" style="enable-background:new 0 0 31 24;" xml:space="preserve">
<style type="text/css">
	.st0{fill:#FF5B00;}
</style>
<path class="st0" d="M5.2,10.7h20.7c2.8,0,5.2-2.3,5.2-5.2s-2.3-5.2-5.2-5.2H5.2C2.3,0.4,0,2.7,0,5.5S2.3,10.7,5.2,10.7z M29.7,5.5
	c0,2.1-1.7,3.9-3.9,3.9h-5.2V1.7h5.2C28,1.7,29.7,3.4,29.7,5.5z M5.2,1.7h14.2v7.7H5.2C3,9.4,1.3,7.7,1.3,5.5S3,1.7,5.2,1.7z
	 M25.8,13.3H5.2c-2.8,0-5.2,2.3-5.2,5.2s2.3,5.2,5.2,5.2h20.7c2.8,0,5.2-2.3,5.2-5.2S28.7,13.3,25.8,13.3z M1.3,18.5
	c0-2.1,1.7-3.9,3.9-3.9h6.5v7.7H5.2C3,22.3,1.3,20.6,1.3,18.5z M25.8,22.3H12.9v-7.7h12.9c2.1,0,3.9,1.7,3.9,3.9
	C29.7,20.6,28,22.3,25.8,22.3z"/>
</svg>
