<?xml version="1.0" encoding="utf-8"?>
<!-- Generator: Adobe Illustrator 27.9.0, SVG Export Plug-In . SVG Version: 6.00 Build 0)  -->
<svg version="1.1" id="Слой_1" xmlns="http://www.w3.org/2000/svg" xmlns:xlink="http://www.w3.org/1999/xlink" x="0px" y="0px"
	 viewBox="0 0 16 152" style="enable-background:new 0 0 16 152;" xml:space="preserve">
<style type="text/css">
	.st0{fill-rule:evenodd;clip-rule:evenodd;fill:#FFFFFF;}
</style>
<g>
	<path class="st0" d="M10.3,10.3l1.5,0.3V4.3c0-0.5,0-1-0.2-1.5c-0.1-0.3-0.2-0.7-0.5-1c-0.2-0.2-0.4-0.4-0.7-0.6
		C10.2,1.1,9.8,1,9.4,0.9C9.1,0.8,8.7,0.8,8.3,0.8c-0.2,0-0.5,0.1-0.7,0.3C7.5,1.3,7.4,1.5,7.3,1.8c-0.1,0.4-0.2,1-0.2,1.4v2.9
		c0,0.3,0,0.6-0.3,0.8C6.6,7.1,6.3,7.1,6,7.1C5.7,7,5.5,6.9,5.3,6.6C5.1,6.4,5.1,6.1,5.1,5.8V0.4L3.6,0.1v6.1c0,0.5,0,1,0.2,1.5
		C3.8,8,4,8.4,4.2,8.6c0.2,0.2,0.4,0.4,0.7,0.6C5.3,9.4,5.6,9.5,6,9.6c0.3,0.1,0.7,0.1,1.1,0.1c0.2,0,0.5-0.1,0.7-0.3
		C7.9,9.2,8,8.9,8.1,8.7c0.1-0.4,0.2-1,0.2-1.4V4.4c0-0.3,0-0.6,0.3-0.8c0.2-0.2,0.5-0.2,0.8-0.1c0.3,0.1,0.6,0.2,0.7,0.4
		c0.2,0.2,0.2,0.6,0.2,0.9V10.3z M8.1,23.1l0.6,0.2V31c0.2,0,0.4,0,0.5,0c0.3-0.1,0.5-0.2,0.7-0.5c0.2-0.2,0.2-0.5,0.3-0.8
		c0.1-0.4,0.1-0.8,0.1-1.2V25l1.6,0.3v3.8c0,0.9,0,1.8-0.3,2.6c-0.1,0.5-0.3,1-0.7,1.3c-0.3,0.3-0.8,0.4-1.2,0.4
		c-0.7,0-1.3-0.1-2-0.2c-0.7-0.1-1.3-0.3-2-0.6c-0.5-0.2-1-0.5-1.3-1C4,31.2,3.8,30.6,3.6,30c-0.2-0.9-0.3-1.9-0.3-2.8
		c0-0.8,0-1.8,0.3-2.6c0.1-0.5,0.3-1,0.7-1.3C4.6,23,5,22.8,5.5,22.8c0.6,0,1.2,0,1.8,0.1L8.1,23.1z M6.8,30.7v-5.5l-0.1,0
		c-1.6-0.3-1.8,1-1.7,2.4c0,1.4,0.2,2.7,1.6,3L6.8,30.7z M8.1,69.1l0.6,0.2V77c0.2,0,0.4,0,0.5,0c0.3-0.1,0.5-0.2,0.7-0.5
		c0.2-0.2,0.2-0.5,0.3-0.8c0.1-0.4,0.1-0.8,0.1-1.2V71l1.6,0.3V75c0,0.9,0,1.8-0.3,2.6c-0.1,0.5-0.3,1-0.7,1.3
		c-0.3,0.3-0.8,0.4-1.2,0.4c-0.7,0-1.3-0.1-2-0.2c-0.7-0.1-1.3-0.3-2-0.6c-0.5-0.2-1-0.5-1.3-1C4,77.2,3.8,76.6,3.6,76
		c-0.2-0.9-0.3-1.9-0.3-2.8c0-0.8,0-1.8,0.3-2.6c0.1-0.5,0.3-1,0.7-1.3c0.3-0.3,0.7-0.4,1.1-0.5c0.6,0,1.2,0,1.8,0.1L8.1,69.1z
		 M6.8,76.6v-5.5l-0.1,0c-1.6-0.3-1.8,1-1.7,2.4c0,1.4,0.2,2.7,1.6,3L6.8,76.6z M11.9,60.3v-2.9l-4.2,3.2l-4-4.7v2.7l2.6,3.1l-2.6,2
		v2.9l4-3l4.3,4.8v-2.7L9,62.5L11.9,60.3z M5.5,50.9v-3.4c0-0.5,0.1-1.2,0.5-1.5c0.5-0.3,1.2-0.2,1.7-0.1c0.6,0.1,1.3,0.3,1.6,0.7
		c0.4,0.4,0.5,1,0.5,1.6v3.5L5.5,50.9z M15.6,55.7V53l-3.8-0.8v-3.3c0-0.8,0-1.6-0.2-2.4c-0.1-0.6-0.3-1.1-0.7-1.6
		c-0.3-0.4-0.8-0.8-1.3-1c-0.6-0.3-1.3-0.5-2-0.6c-0.6-0.1-1.4-0.2-2-0.2c-0.4,0-0.9,0.2-1.2,0.5c-0.3,0.3-0.5,0.8-0.7,1.2
		c-0.2,0.7-0.2,1.5-0.2,2.3v6.3L15.6,55.7z M5.3,34.5l-1.7-0.3v1.7c0,0.7,0,1.4,0.2,2c0.1,0.5,0.2,0.9,0.5,1.3
		c0.2,0.3,0.5,0.6,0.8,0.8c0.4,0.2,0.8,0.4,1.3,0.5l5.5,1.1v-2.8l-5.4-1.1C6,37.6,5.7,37.4,5.5,37c-0.2-0.3-0.2-0.8-0.2-1.2V34.5z
		 M10.3,21.6l1.5,0.3v-6.4c0-0.5,0-1-0.2-1.5c-0.1-0.3-0.2-0.7-0.5-1c-0.2-0.2-0.4-0.4-0.7-0.6c-0.3-0.2-0.7-0.3-1.1-0.3
		c-0.3-0.1-0.7-0.1-1.1-0.1c-0.2,0-0.5,0.1-0.7,0.3c-0.2,0.2-0.3,0.4-0.4,0.7c-0.1,0.4-0.2,1-0.2,1.4v2.9c0,0.3,0,0.6-0.3,0.8
		c-0.2,0.2-0.5,0.2-0.8,0.2c-0.3-0.1-0.6-0.2-0.7-0.4c-0.2-0.2-0.2-0.6-0.2-0.8v-5.4l-1.5-0.3v6.1c0,0.5,0,1,0.2,1.5
		c0.1,0.3,0.2,0.7,0.4,0.9c0.2,0.2,0.4,0.4,0.7,0.6c0.3,0.2,0.7,0.3,1.1,0.3c0.3,0.1,0.7,0.1,1.1,0.1c0.2,0,0.5-0.1,0.7-0.3
		c0.2-0.2,0.3-0.5,0.4-0.7c0.1-0.4,0.2-1,0.2-1.4v-2.9c0-0.3,0-0.6,0.3-0.8c0.2-0.2,0.5-0.2,0.8-0.1c0.3,0.1,0.6,0.2,0.7,0.4
		c0.2,0.2,0.2,0.6,0.2,0.9V21.6z"/>
	<path class="st0" d="M3.6,104.5l8.2,1.6v-2.8l-6.1-1.2v-3.2c0-0.5,0-1.1,0.4-1.5c0.3-0.3,0.8-0.3,1.2-0.2l4.5,0.9v-2.8l-5.1-1
		c-0.5-0.1-1-0.1-1.5-0.1c-0.4,0.1-0.7,0.2-0.9,0.5c-0.3,0.4-0.5,0.9-0.6,1.3c-0.2,0.7-0.2,1.5-0.2,2.3V104.5z M8.1,133.1l0.6,0.2
		v7.7c0.2,0,0.4,0,0.5,0c0.3-0.1,0.5-0.2,0.7-0.5c0.2-0.2,0.3-0.5,0.3-0.8c0.1-0.4,0.1-0.8,0.1-1.2v-3.5l1.6,0.3v3.8
		c0,0.9,0,1.8-0.3,2.6c-0.1,0.5-0.3,1-0.7,1.3c-0.3,0.3-0.8,0.4-1.2,0.4c-0.7,0-1.3-0.1-2-0.2c-0.7-0.1-1.3-0.3-2-0.6
		c-0.5-0.2-1-0.5-1.3-1c-0.4-0.5-0.6-1.1-0.8-1.7c-0.2-0.9-0.3-1.9-0.3-2.8c0-0.8,0-1.8,0.3-2.6c0.1-0.5,0.3-1,0.7-1.3
		c0.3-0.3,0.7-0.4,1.1-0.5c0.6,0,1.2,0,1.8,0.1L8.1,133.1z M6.8,140.6v-5.5l-0.1,0c-1.6-0.3-1.8,1-1.7,2.4c0,1.4,0.2,2.7,1.6,3
		L6.8,140.6z M5.3,86.2c0-0.4,0-0.9,0.1-1.3c0.1-0.3,0.2-0.6,0.5-0.8c0.2-0.2,0.6-0.3,0.9-0.3c0.4,0,0.7,0,1.1,0.1
		c0.4,0.1,0.7,0.2,1,0.3c0.3,0.1,0.6,0.3,0.8,0.6c0.2,0.3,0.4,0.6,0.4,0.9c0.1,0.4,0.1,0.9,0.1,1.3c0,0.4,0,0.9-0.1,1.3
		C10,88.7,9.9,89,9.6,89.2c-0.3,0.2-0.6,0.3-0.9,0.3c-0.4,0-0.7,0-1.1-0.1c-0.4-0.1-0.7-0.2-1.1-0.3C6.3,89,6,88.8,5.8,88.5
		c-0.2-0.3-0.4-0.6-0.4-0.9C5.3,87.2,5.3,86.7,5.3,86.2 M12.1,87.6c0-0.9,0-1.9-0.3-2.8c-0.1-0.6-0.4-1.2-0.8-1.7
		c-0.4-0.5-0.8-0.8-1.3-1c-0.7-0.3-1.4-0.5-2.1-0.6c-0.7-0.1-1.4-0.2-2-0.2c-0.5,0-0.9,0.1-1.2,0.5C4,82,3.8,82.5,3.6,83
		c-0.2,0.8-0.3,1.8-0.3,2.7c0,0.9,0.1,1.9,0.3,2.8c0.1,0.6,0.4,1.2,0.8,1.7c0.4,0.5,0.8,0.8,1.3,1c0.7,0.3,1.4,0.5,2.1,0.6
		c0.7,0.1,1.4,0.2,2.1,0.2c0.5,0,0.9-0.2,1.3-0.5c0.4-0.3,0.6-0.9,0.7-1.4C12,89.4,12.1,88.5,12.1,87.6 M3.6,151.6l1.7,0.3v-1.7
		l3.9,0.8c0.4,0.1,0.9,0.1,1.3,0.1c0.3-0.1,0.5-0.2,0.7-0.4c0.2-0.3,0.4-0.7,0.5-1.1c0.1-0.6,0.2-1.3,0.2-1.9v-1.4l-1.8-0.4v0.9
		c0,0.4,0,0.9-0.3,1.2c-0.2,0.3-0.6,0.4-1,0.3l-3.5-0.7v-3l-1.7-0.3v3l-3.2-0.6v2.8l3.2,0.6V151.6z M9.9,122.4v4.2
		c0,0.5-0.1,1.2-0.6,1.5c-0.5,0.3-1.2,0.2-1.7,0.1c-0.6-0.1-1.2-0.3-1.6-0.7c-0.4-0.4-0.5-1.1-0.5-1.6v-4.4l-1.9-0.4v4.2
		c0,0.8,0,1.6,0.2,2.4c0.1,0.6,0.3,1.1,0.7,1.6c0.3,0.4,0.8,0.8,1.3,1c0.6,0.3,1.3,0.5,2,0.6c0.6,0.1,1.4,0.2,2,0.2
		c0.4,0,0.9-0.2,1.2-0.5c0.3-0.3,0.5-0.8,0.7-1.2c0.2-0.7,0.2-1.5,0.2-2.3v-4.3L9.9,122.4z M0.4,115v2.8l11.5,2.3v-2.8l-6.1-1.2
		v-3.2c0-0.5,0-1.1,0.4-1.5c0.3-0.3,0.8-0.3,1.2-0.2l4.5,0.9v-2.8l-5.1-1c-0.5-0.1-1-0.1-1.5-0.1c-0.4,0.1-0.7,0.2-0.9,0.5
		c-0.3,0.4-0.5,0.9-0.6,1.3c-0.2,0.7-0.2,1.5-0.2,2.3v3.4L0.4,115z"/>
</g>
</svg>
